<svg xmlns="http://www.w3.org/2000/svg" width="405" height="219" viewBox="0 0 405 219"><g transform="translate(-29 -66)"><g transform="translate(-723 -161)"><g transform="translate(752 227)"><rect width="120" height="22" rx="11" transform="translate(30)" fill="#f9f9f9"/><rect width="132" height="22" rx="11" transform="translate(0 44)" fill="#f9f9f9"/><rect width="190" height="22" rx="11" transform="translate(208 66)" fill="#f9f9f9"/><rect width="158" height="22" rx="11" transform="translate(129 197)" fill="#f9f9f9"/><rect width="158" height="22" rx="11" transform="translate(66 154)" fill="#f9f9f9"/><rect width="350" height="22" rx="11" transform="translate(31 110)" fill="#f9f9f9"/><path d="M153,22H42.5a11,11,0,0,1,0,22h74a11,11,0,0,1,0-22ZM405,88H324.5a11,11,0,0,1,0,22h44a11,11,0,0,1,0-22ZM161,132H80.5a11,11,0,0,1,0,22h44a11,11,0,0,1,0-22Zm75,44H140.5a11,11,0,0,1,0,22h44a11,11,0,0,1,0-22Z" fill="#f9f9f9" fill-rule="evenodd"/></g><g transform="translate(812 240)"><rect width="278" height="179" rx="10" fill="#fff" stroke="#eee" stroke-width="8"/><path d="M4,29H275v4H4Z" fill="#eee" fill-rule="evenodd"/></g></g><g transform="translate(-1232 -536)"><path d="M3486.219,791.45a11.686,11.686,0,0,0-3.292.752,6.66,6.66,0,0,0-2.264,1.712s1.274,9.593-4.883,13.926-19.746,3.406-19.746,3.406a29.56,29.56,0,0,0,4.721-6.7c1.547-4.155,2.61-7.8,5.844-9.559,6.682-3.644,14.064-1.076,14.064-1.076" transform="translate(-1990)" fill="#c8f8c8" stroke="#e1e2e4" stroke-width="1"/><path d="M3493.377,796.342a283.8,283.8,0,0,0,26.185-14.016c12.047-7.474,15.888-10.779,18.234-19.129s-4.292-12.142-8.083-14.273c-6.571-3.692-15.993-2.9-17.83,0s1.36,8.358,8.746,12.049,19.145,3.6,31.438-1.032,20.321-11.967,32.032-29.725,19.568-41.21,19.568-41.21" transform="translate(-1990)" fill="none" stroke="#e1e2e4" stroke-width="2"/><g transform="translate(1567 759)" fill="#c0fdc6"><path d="M 5.447773456573486 7.867548942565918 C 3.655963659286499 7.867548942565918 2.010903596878052 7.700529098510742 0.8156436085700989 7.397258758544922 C -0.04273641481995583 7.179459095001221 -0.9599564075469971 6.79594898223877 -0.9599564075469971 6.372738838195801 C -0.9599564075469971 5.674648761749268 -0.1083264127373695 4.143028736114502 1.519353628158569 2.566398859024048 C 3.255013465881348 0.8851889371871948 5.243563652038574 -0.2523510456085205 6.975133419036865 -0.5545710325241089 C 7.590383529663086 -0.6619410514831543 8.203093528747559 -0.7163910269737244 8.796223640441895 -0.7163910269737244 C 11.59261322021484 -0.7163910269737244 13.91024398803711 0.5278689861297607 14.43229389190674 2.309418916702271 C 14.67242336273193 3.128928899765015 14.51657390594482 4.043398857116699 13.99344348907471 4.884368896484375 C 13.15959358215332 6.224819183349609 11.51013374328613 7.198029041290283 9.467983245849609 7.554449081420898 C 8.311113357543945 7.756349086761475 6.883373737335205 7.867548942565918 5.447773456573486 7.867548942565918 Z" stroke="none"/><path d="M 8.796223640441895 -0.2163910865783691 C 8.231822967529297 -0.2163910865783691 7.648043632507324 -0.1644511222839355 7.061093807220459 -0.0620112419128418 C 5.425783157348633 0.2233991622924805 3.532693862915039 1.312318801879883 1.867233276367188 2.925539016723633 C 0.3230905532836914 4.421246528625488 -0.4037666320800781 5.770857810974121 -0.4568119049072266 6.312318325042725 C -0.3649139404296875 6.406330585479736 0.0359954833984375 6.733156204223633 1.355403900146484 7.008558750152588 C 2.464523315429688 7.240058898925781 3.91788387298584 7.367548942565918 5.447773933410645 7.367548942565918 C 6.855443477630615 7.367548942565918 8.252653121948242 7.258998870849609 9.382023811340332 7.061889171600342 C 11.28409385681152 6.729918956756592 12.81014347076416 5.83997917175293 13.56888389587402 4.620259284973145 C 14.01580333709717 3.901808977127075 14.15202331542969 3.13106894493103 13.95246315002441 2.450018882751465 C 13.7483434677124 1.753418922424316 13.17604351043701 1.106429100036621 12.34098339080811 0.6282391548156738 C 11.37606334686279 0.07567882537841797 10.15030384063721 -0.2163910865783691 8.796223640441895 -0.2163910865783691 M 8.796228408813477 -1.216391563415527 C 11.97885036468506 -1.216391563415527 14.35281276702881 0.2601113319396973 14.91211318969727 2.168818950653076 C 15.57830333709717 4.442348957061768 13.66894340515137 7.328808784484863 9.553953170776367 8.046998977661133 C 8.344120025634766 8.258148193359375 6.892808437347412 8.367547035217285 5.447769165039062 8.367547035217285 C 1.977815628051758 8.367547035217285 -1.459956169128418 7.737424850463867 -1.459956169128418 6.372738838195801 C -1.459956169128418 4.439748764038086 2.774173736572266 -0.3289308547973633 6.889163494110107 -1.047121047973633 C 7.549460887908936 -1.162361145019531 8.187931060791016 -1.216391563415527 8.796228408813477 -1.216391563415527 Z" stroke="none" fill="#e3e3e3"/></g><path d="M0,2A3.4,3.4,0,0,1,.695.533,2.193,2.193,0,0,1,2,0" transform="translate(1581.5 759.5)" fill="none" stroke="#e1e1e1" stroke-width="1"/></g><g transform="translate(0 -0.252)"><path d="M178.08,162.252H157.142v27.509H178.08" fill="none" stroke="#eee" stroke-width="5"/><path d="M177.131,175.5H157.426" fill="none" stroke="#eee" stroke-width="5"/></g><path d="M186.744,192.362v-30h4.333l6.933,26.854h3.467l6.933-26.854h4.333v30" transform="translate(1.925 -0.362)" fill="none" stroke="#eee" stroke-width="5"/><path d="M227.341,162.686l17.5-.125v14.859h-17.5Z" transform="translate(0 -0.562)" fill="none" stroke="#eee" stroke-width="5"/><path d="M252.824,162H266.2l.516,30-.516-30h12.624" transform="translate(-1)" fill="none" stroke="#eee" stroke-width="5"/><g transform="translate(0 -0.482)"><path d="M283.048,161.221l.06,10.616,10.23,7.1,9.71-7.1V161.221" transform="translate(1 -1.339)" fill="none" stroke="#eee" stroke-width="5"/><line y1="14" transform="translate(294.5 178.5)" fill="none" stroke="#eee" stroke-width="5"/></g><path d="M227.341,191.155V176.549" transform="translate(0 0.851)" fill="none" stroke="#eee" stroke-width="5"/></g></svg>